# xmcd
#
# Track frame offsets: 
#        150
#        15205
#        32567
#        47917
#        62527
#        78192
#        92312
#        108740
#        123857
#        136857
#
# Disc length: 2091 seconds
#
# Revision: 0
# Processed by: cddbd v1.4PL0 Copyright (c) Steve Scherf et al.
# Submitted via: ExactAudioCopy v0.90b4
#
DISCID=6b08290a
DTITLE=Suzy Bogguss and Billy Dean - Back 2 Back Hits
DYEAR=1900
DGENRE=Country
TTITLE0=Just Like The Weather (Suzy Bogguss)
TTITLE1=Cross My Broken Heart (Suzy Bogguss)
TTITLE2=You Wouldn't Say That To A Stranger (Suzy Bogguss)
TTITLE3=Heartache (Suzy Bogguss)
TTITLE4=Somebody To Love (Suzy Bogguss)
TTITLE5=Billy The Kid (Billy Dean)
TTITLE6=Tryin' To Hide A Fire In The Dark (Billy Dean)
TTITLE7=Somewhere In My Broken Heart (Billy Dean)
TTITLE8=I'm Not Built That Way (Billy Dean)
TTITLE9=I Wouldn't Be A Man (Billy Dean)
EXTD=
EXTT0=
EXTT1=
EXTT2=
EXTT3=
EXTT4=
EXTT5=
EXTT6=
EXTT7=
EXTT8=
EXTT9=
PLAYORDER=
